<svg width="20" height="20" viewBox="0 0 20 20" fill="none" xmlns="http://www.w3.org/2000/svg">
<path d="M14.2791 9.4464L13.7135 8.8808L5.7935 16.8008H2.3999V13.4064L11.4503 4.3552L15.9759 8.8808C16.1259 9.03082 16.2101 9.23426 16.2101 9.4464C16.2101 9.65853 16.1259 9.86197 15.9759 10.012L10.3199 15.6688L9.1879 14.5376L14.2791 9.4464ZM12.5823 7.7496L11.4503 6.6184L3.9999 14.0688V15.2008H5.1311L12.5823 7.7496ZM14.8447 2.0928L17.1079 4.3552C17.2579 4.50522 17.3421 4.70866 17.3421 4.9208C17.3421 5.13293 17.2579 5.33637 17.1079 5.4864L15.9759 6.6184L12.5823 3.224L13.7135 2.0928C13.8635 1.94282 14.067 1.85857 14.2791 1.85857C14.4912 1.85857 14.6947 1.94282 14.8447 2.0928Z" fill="black"/>
</svg>
