<svg width="205" height="52" viewBox="0 0 205 52" fill="none" xmlns="http://www.w3.org/2000/svg">
  <path
    d="M75.7448 39.2078L65.9048 24.8478L75.3448 11.2078H68.0648L59.5048 23.3678V11.2078H53.1048V39.2078H59.5048V26.2478L68.4648 39.2078H75.7448ZM78.9345 39.2078C84.0945 39.7678 89.9745 37.8478 89.9745 27.8478V17.3678H96.5345V39.2078H102.935V11.2078H83.5745V28.0878C83.5745 32.7678 81.8145 33.6478 78.9345 33.2078V39.2078ZM116.531 33.0478V28.0878H126.531V22.0078H116.531V17.3678H127.531V11.2078H110.131V39.2078H127.731V33.0478H116.531ZM151.102 24.6878C152.622 23.3678 153.542 21.5278 153.542 19.2078C153.542 14.3678 149.582 11.2078 144.702 11.2078H133.742V39.2078H145.502C150.502 39.2078 154.542 35.9678 154.542 31.0078C154.542 28.1678 153.182 26.0078 151.102 24.6878ZM144.702 17.2078C146.182 17.2078 147.142 18.2478 147.142 19.6878C147.142 21.1278 146.142 22.1678 144.702 22.1678H140.142V17.2078H144.702ZM145.502 33.2078H140.142V27.8478H145.502C147.102 27.8478 148.142 28.9678 148.142 30.5278C148.142 32.0878 147.102 33.2078 145.502 33.2078ZM166.527 33.0478V28.0878H176.527V22.0078H166.527V17.3678H177.527V11.2078H160.127V39.2078H177.727V33.0478H166.527ZM194.338 11.2078H183.738V39.2078H190.138V30.4078H194.338C199.858 30.4078 204.138 26.1278 204.138 20.8078C204.138 15.4878 199.858 11.2078 194.338 11.2078ZM194.338 24.4078H190.138V17.2078H194.338C196.298 17.2078 197.738 18.7678 197.738 20.8078C197.738 22.8478 196.298 24.4078 194.338 24.4078Z"
    fill="#4B6199"
  />
  <rect
    x="10.1814"
    y="9.62811"
    width="18.834"
    height="40.3585"
    rx="5"
    transform="rotate(-18.9073 10.1814 9.62811)"
    fill="#00BE3C"
    fill-opacity="0.57"
  />
  <rect
    x="41.6675"
    y="10.2196"
    width="18.834"
    height="40.3585"
    rx="5"
    transform="rotate(70.7357 41.6675 10.2196)"
    fill="#00BE3C"
    fill-opacity="0.57"
  />
</svg>