<svg width="20" height="20" viewBox="0 0 20 20" fill="none" xmlns="http://www.w3.org/2000/svg">
<g clip-path="url(#clip0)">
<path d="M11.325 11.325C11.6638 10.9862 11.8738 10.5175 11.8738 9.99999C11.8738 9.48249 11.6638 9.01374 11.325 8.67499C10.5875 7.93749 2.92505 2.92499 2.92505 2.92499C2.92505 2.92499 7.92505 10.5875 8.66255 11.325C8.8366 11.5012 9.04389 11.6411 9.27241 11.7365C9.50093 11.832 9.74613 11.8812 9.9938 11.8812C10.2415 11.8812 10.4867 11.832 10.7152 11.7365C10.9437 11.6411 11.151 11.5012 11.325 11.325Z" fill="#4B6199"/>
<path d="M10 0V3.75H11.25V1.9875C15.1913 2.60625 18.17 5.9775 18.17 10.0437C18.1698 11.3037 17.8774 12.5465 17.3158 13.6744C16.7543 14.8023 15.9389 15.7847 14.9336 16.5443C13.9284 17.304 12.7607 17.8202 11.5223 18.0524C10.284 18.2847 9.00858 18.2267 7.79641 17.8829C6.58423 17.5391 5.46827 16.919 4.53618 16.0712C3.60409 15.2234 2.88126 14.171 2.42447 12.9968C1.96769 11.8225 1.78938 10.5583 1.90355 9.30355C2.01773 8.04876 2.42129 6.83753 3.08252 5.765L1.93752 4.1125C0.687321 5.82046 0.0158891 7.88337 0.0212724 10C0.0212724 11.9778 0.607762 13.9112 1.70658 15.5557C2.80539 17.2002 4.36718 18.4819 6.19444 19.2388C8.0217 19.9957 10.0324 20.1937 11.9722 19.8079C13.912 19.422 15.6938 18.4696 17.0923 17.0711C18.4909 15.6725 19.4433 13.8907 19.8291 11.9509C20.215 10.0111 20.0169 8.00043 19.2601 6.17317C18.5032 4.3459 17.2215 2.78412 15.577 1.6853C13.9325 0.58649 11.9991 0 10.0213 0L10 0Z" fill="#4B6199"/>
</g>
<defs>
<clipPath id="clip0">
<rect width="20" height="20" fill="white"/>
</clipPath>
</defs>
</svg>
